<svg xmlns="http://www.w3.org/2000/svg" viewBox="0 0 200 200" fill="none">
  <defs>
    <linearGradient id="bronzeGrad" x1="0%" y1="0%" x2="100%" y2="100%">
      <stop offset="0%" stop-color="#FDBA74"/>
      <stop offset="50%" stop-color="#D97706"/>
      <stop offset="100%" stop-color="#78350F"/>
    </linearGradient>
    <filter id="bronzeGlow" x="-20%" y="-20%" width="140%" height="140%">
      <feDropShadow dx="0" dy="2" stdDeviation="3" flood-color="#D97706" flood-opacity="0.4"/>
    </filter>
  </defs>

  <!-- Left Laurel Branch -->
  <g filter="url(#bronzeGlow)" fill="url(#bronzeGrad)">
    <path d="M90 178 C 50 160 30 115 40 65" stroke="url(#bronzeGrad)" stroke-width="4" stroke-linecap="round" fill="none"/>
    <path d="M85 170 C 70 168 60 162 58 150 C 68 152 78 160 85 170 Z"/>
    <path d="M72 155 C 55 150 48 140 48 128 C 58 132 68 142 72 155 Z"/>
    <path d="M60 135 C 42 128 36 116 38 102 C 48 108 58 120 60 135 Z"/>
    <path d="M50 112 C 34 102 30 88 34 74 C 44 82 50 96 50 112 Z"/>
    <path d="M44 88 C 30 76 28 60 36 46 C 44 56 46 72 44 88 Z"/>
    <path d="M42 64 C 32 50 34 34 46 22 C 50 34 48 50 42 64 Z"/>
    
    <path d="M76 162 C 65 170 52 172 45 162 C 55 158 68 158 76 162 Z"/>
    <path d="M62 142 C 50 148 38 148 32 136 C 42 134 54 136 62 142 Z"/>
    <path d="M50 120 C 38 124 26 122 22 108 C 32 108 42 112 50 120 Z"/>
    <path d="M40 96 C 28 98 18 92 16 78 C 26 80 34 86 40 96 Z"/>
  </g>

  <!-- Right Laurel Branch -->
  <g filter="url(#bronzeGlow)" fill="url(#bronzeGrad)">
    <path d="M110 178 C 150 160 170 115 160 65" stroke="url(#bronzeGrad)" stroke-width="4" stroke-linecap="round" fill="none"/>
    <path d="M115 170 C 130 168 140 162 142 150 C 132 152 122 160 115 170 Z"/>
    <path d="M128 155 C 145 150 152 140 152 128 C 142 132 132 142 128 155 Z"/>
    <path d="M140 135 C 158 128 164 116 162 102 C 152 108 142 120 140 135 Z"/>
    <path d="M150 112 C 166 102 170 88 166 74 C 156 82 150 96 150 112 Z"/>
    <path d="M156 88 C 170 76 172 60 164 46 C 156 56 154 72 156 88 Z"/>
    <path d="M158 64 C 168 50 166 34 154 22 C 150 34 152 50 158 64 Z"/>
    
    <path d="M124 162 C 135 170 148 172 155 162 C 145 158 132 158 124 162 Z"/>
    <path d="M138 142 C 150 148 162 148 168 136 C 158 134 146 136 138 142 Z"/>
    <path d="M150 120 C 162 124 174 122 178 108 C 168 108 158 112 150 120 Z"/>
    <path d="M160 96 C 172 98 182 92 184 78 C 174 80 166 86 160 96 Z"/>
  </g>

  <!-- Bottom Ribbon Banner -->
  <g filter="url(#bronzeGlow)">
    <path d="M50 168 Q 100 185 150 168 L 140 188 Q 100 200 60 188 Z" fill="url(#bronzeGrad)"/>
    <path d="M35 175 L 52 168 L 54 186 L 35 192 L 44 183 Z" fill="#78350F"/>
    <path d="M165 175 L 148 168 L 146 186 L 165 192 L 156 183 Z" fill="#78350F"/>
  </g>
</svg>
